<mxfile host="app.diagrams.net" modified="2020-12-06T12:10:53.952Z" agent="5.0 (Windows NT 6.2; Win64; x64) AppleWebKit/537.36 (KHTML, like Gecko) Chrome/86.0.4240.198 Safari/537.36" etag="RAd8lWbWDS_fWuxS4Y65" version="13.10.9" type="github">
  <diagram id="MX3GkOYxM5VYtlScXEcw" name="Page-1">
    <mxGraphModel dx="2170" dy="1063" grid="1" gridSize="10" guides="1" tooltips="1" connect="1" arrows="1" fold="1" page="1" pageScale="1" pageWidth="827" pageHeight="1169" math="0" shadow="0">
      <root>
        <mxCell id="0" />
        <mxCell id="1" parent="0" />
        <mxCell id="mqizsuFu106cNB8AvVmy-3" value="" style="edgeStyle=orthogonalEdgeStyle;rounded=0;orthogonalLoop=1;jettySize=auto;html=1;" edge="1" parent="1" source="mqizsuFu106cNB8AvVmy-1">
          <mxGeometry relative="1" as="geometry">
            <mxPoint x="380" y="120" as="targetPoint" />
            <Array as="points">
              <mxPoint x="380" y="90" />
              <mxPoint x="380" y="90" />
            </Array>
          </mxGeometry>
        </mxCell>
        <mxCell id="mqizsuFu106cNB8AvVmy-1" value="Başla" style="ellipse;whiteSpace=wrap;html=1;fillColor=#fff2cc;strokeColor=#d6b656;" vertex="1" parent="1">
          <mxGeometry x="320" y="10" width="120" height="70" as="geometry" />
        </mxCell>
        <mxCell id="mqizsuFu106cNB8AvVmy-5" value="" style="edgeStyle=orthogonalEdgeStyle;rounded=0;orthogonalLoop=1;jettySize=auto;html=1;" edge="1" parent="1" source="mqizsuFu106cNB8AvVmy-2">
          <mxGeometry relative="1" as="geometry">
            <mxPoint x="380" y="220" as="targetPoint" />
            <Array as="points">
              <mxPoint x="380" y="210" />
              <mxPoint x="380" y="210" />
            </Array>
          </mxGeometry>
        </mxCell>
        <mxCell id="mqizsuFu106cNB8AvVmy-2" value="sayi" style="shape=parallelogram;perimeter=parallelogramPerimeter;whiteSpace=wrap;html=1;fixedSize=1;fillColor=#f5f5f5;strokeColor=#666666;fontColor=#333333;" vertex="1" parent="1">
          <mxGeometry x="320" y="120" width="120" height="60" as="geometry" />
        </mxCell>
        <mxCell id="mqizsuFu106cNB8AvVmy-7" value="" style="edgeStyle=orthogonalEdgeStyle;rounded=0;orthogonalLoop=1;jettySize=auto;html=1;" edge="1" parent="1" source="mqizsuFu106cNB8AvVmy-4" target="mqizsuFu106cNB8AvVmy-12">
          <mxGeometry relative="1" as="geometry">
            <mxPoint x="380" y="320" as="targetPoint" />
            <Array as="points" />
          </mxGeometry>
        </mxCell>
        <mxCell id="mqizsuFu106cNB8AvVmy-4" value="sayi= 0" style="whiteSpace=wrap;html=1;fillColor=#ffe6cc;strokeColor=#d79b00;" vertex="1" parent="1">
          <mxGeometry x="320" y="220" width="120" height="60" as="geometry" />
        </mxCell>
        <mxCell id="mqizsuFu106cNB8AvVmy-9" value="" style="endArrow=classic;html=1;" edge="1" parent="1" target="mqizsuFu106cNB8AvVmy-2">
          <mxGeometry width="50" height="50" relative="1" as="geometry">
            <mxPoint x="320" y="249.5" as="sourcePoint" />
            <mxPoint x="300" y="150" as="targetPoint" />
            <Array as="points">
              <mxPoint x="230" y="250" />
              <mxPoint x="230" y="149" />
            </Array>
          </mxGeometry>
        </mxCell>
        <mxCell id="mqizsuFu106cNB8AvVmy-10" value="EVET" style="text;html=1;strokeColor=none;fillColor=none;align=center;verticalAlign=middle;whiteSpace=wrap;rounded=0;rotation=0;fontStyle=1;fontSize=15;" vertex="1" parent="1">
          <mxGeometry x="240" y="175" width="30" height="40" as="geometry" />
        </mxCell>
        <mxCell id="mqizsuFu106cNB8AvVmy-14" style="edgeStyle=orthogonalEdgeStyle;rounded=0;orthogonalLoop=1;jettySize=auto;html=1;exitX=1;exitY=0.5;exitDx=0;exitDy=0;entryX=0;entryY=0.5;entryDx=0;entryDy=0;fontSize=15;" edge="1" parent="1" source="mqizsuFu106cNB8AvVmy-12" target="mqizsuFu106cNB8AvVmy-13">
          <mxGeometry relative="1" as="geometry">
            <Array as="points">
              <mxPoint x="490" y="380" />
            </Array>
          </mxGeometry>
        </mxCell>
        <mxCell id="mqizsuFu106cNB8AvVmy-16" style="edgeStyle=orthogonalEdgeStyle;rounded=0;orthogonalLoop=1;jettySize=auto;html=1;fontSize=15;" edge="1" parent="1" source="mqizsuFu106cNB8AvVmy-12">
          <mxGeometry relative="1" as="geometry">
            <mxPoint x="380" y="330" as="targetPoint" />
            <Array as="points">
              <mxPoint x="380" y="330" />
              <mxPoint x="380" y="330" />
            </Array>
          </mxGeometry>
        </mxCell>
        <mxCell id="mqizsuFu106cNB8AvVmy-19" value="" style="edgeStyle=orthogonalEdgeStyle;rounded=0;orthogonalLoop=1;jettySize=auto;html=1;fontSize=15;" edge="1" parent="1" source="mqizsuFu106cNB8AvVmy-12" target="mqizsuFu106cNB8AvVmy-18">
          <mxGeometry relative="1" as="geometry" />
        </mxCell>
        <mxCell id="mqizsuFu106cNB8AvVmy-12" value="sayi &amp;lt; 0" style="rhombus;whiteSpace=wrap;html=1;fontSize=15;fillColor=#e1d5e7;strokeColor=#9673a6;" vertex="1" parent="1">
          <mxGeometry x="320" y="330" width="120" height="100" as="geometry" />
        </mxCell>
        <mxCell id="mqizsuFu106cNB8AvVmy-21" style="edgeStyle=orthogonalEdgeStyle;rounded=0;orthogonalLoop=1;jettySize=auto;html=1;fontSize=15;verticalAlign=top;" edge="1" parent="1" target="mqizsuFu106cNB8AvVmy-22">
          <mxGeometry relative="1" as="geometry">
            <mxPoint x="450" y="630" as="targetPoint" />
            <mxPoint x="570" y="410" as="sourcePoint" />
            <Array as="points">
              <mxPoint x="570" y="640" />
            </Array>
          </mxGeometry>
        </mxCell>
        <mxCell id="mqizsuFu106cNB8AvVmy-13" value="Sayı Pozitif" style="shape=document;whiteSpace=wrap;html=1;boundedLbl=1;fontSize=15;fillColor=#d5e8d4;strokeColor=#82b366;" vertex="1" parent="1">
          <mxGeometry x="510" y="340" width="120" height="80" as="geometry" />
        </mxCell>
        <mxCell id="mqizsuFu106cNB8AvVmy-15" value="&lt;b&gt;HAYIR&lt;/b&gt;" style="text;html=1;strokeColor=none;fillColor=none;align=center;verticalAlign=middle;whiteSpace=wrap;rounded=0;fontSize=15;" vertex="1" parent="1">
          <mxGeometry x="390" y="300" width="40" height="20" as="geometry" />
        </mxCell>
        <mxCell id="mqizsuFu106cNB8AvVmy-17" value="&lt;b&gt;HAYIR&lt;/b&gt;" style="text;html=1;align=center;verticalAlign=middle;resizable=0;points=[];autosize=1;fontSize=15;" vertex="1" parent="1">
          <mxGeometry x="430" y="350" width="60" height="20" as="geometry" />
        </mxCell>
        <mxCell id="mqizsuFu106cNB8AvVmy-23" value="" style="edgeStyle=orthogonalEdgeStyle;rounded=0;orthogonalLoop=1;jettySize=auto;html=1;fontSize=15;verticalAlign=bottom;" edge="1" parent="1">
          <mxGeometry relative="1" as="geometry">
            <mxPoint x="380" y="560" as="sourcePoint" />
            <mxPoint x="380" y="600" as="targetPoint" />
            <Array as="points" />
          </mxGeometry>
        </mxCell>
        <mxCell id="mqizsuFu106cNB8AvVmy-18" value="Sayı Negatif" style="shape=document;whiteSpace=wrap;html=1;boundedLbl=1;fontSize=15;fillColor=#d5e8d4;strokeColor=#82b366;" vertex="1" parent="1">
          <mxGeometry x="320" y="490" width="120" height="80" as="geometry" />
        </mxCell>
        <mxCell id="mqizsuFu106cNB8AvVmy-20" value="&lt;b&gt;EVET&lt;/b&gt;" style="text;html=1;align=center;verticalAlign=middle;resizable=0;points=[];autosize=1;fontSize=15;" vertex="1" parent="1">
          <mxGeometry x="380" y="440" width="50" height="20" as="geometry" />
        </mxCell>
        <mxCell id="mqizsuFu106cNB8AvVmy-22" value="Dur" style="ellipse;whiteSpace=wrap;html=1;fontSize=15;fillColor=#fff2cc;strokeColor=#d6b656;" vertex="1" parent="1">
          <mxGeometry x="320" y="600" width="120" height="80" as="geometry" />
        </mxCell>
      </root>
    </mxGraphModel>
  </diagram>
</mxfile>
